<mxfile host="Electron" agent="Mozilla/5.0 (Windows NT 10.0; Win64; x64) AppleWebKit/537.36 (KHTML, like Gecko) draw.io/28.1.2 Chrome/138.0.7204.243 Electron/37.4.0 Safari/537.36" version="28.1.2">
  <diagram name="PÃ¡gina-1" id="ojRhGaWcMeIC7LnUBNk2">
    <mxGraphModel dx="1281" dy="1453" grid="0" gridSize="10" guides="1" tooltips="1" connect="1" arrows="1" fold="1" page="1" pageScale="1" pageWidth="1169" pageHeight="827" background="none" math="0" shadow="0">
      <root>
        <mxCell id="0" />
        <mxCell id="1" parent="0" />
        <mxCell id="yHV1ldtDMZXM0xFjSTpt-20" value="" style="ellipse;shape=cloud;whiteSpace=wrap;html=1;" vertex="1" parent="1">
          <mxGeometry x="59" y="-58" width="1198" height="564" as="geometry" />
        </mxCell>
        <mxCell id="yHV1ldtDMZXM0xFjSTpt-2" value="Drive D - EBS" style="outlineConnect=0;dashed=0;verticalLabelPosition=bottom;verticalAlign=top;align=center;html=1;shape=mxgraph.aws3.volume;fillColor=#E05243;gradientColor=none;" vertex="1" parent="1">
          <mxGeometry x="501" y="295" width="52.5" height="75" as="geometry" />
        </mxCell>
        <mxCell id="yHV1ldtDMZXM0xFjSTpt-16" style="edgeStyle=orthogonalEdgeStyle;rounded=0;orthogonalLoop=1;jettySize=auto;html=1;" edge="1" parent="1" source="yHV1ldtDMZXM0xFjSTpt-3" target="yHV1ldtDMZXM0xFjSTpt-2">
          <mxGeometry relative="1" as="geometry">
            <Array as="points">
              <mxPoint x="318" y="333" />
            </Array>
          </mxGeometry>
        </mxCell>
        <mxCell id="yHV1ldtDMZXM0xFjSTpt-24" value="Sistema envia arquivo" style="edgeLabel;html=1;align=center;verticalAlign=middle;resizable=0;points=[];" vertex="1" connectable="0" parent="yHV1ldtDMZXM0xFjSTpt-16">
          <mxGeometry x="-0.4723" y="-3" relative="1" as="geometry">
            <mxPoint as="offset" />
          </mxGeometry>
        </mxCell>
        <mxCell id="yHV1ldtDMZXM0xFjSTpt-3" value="" style="verticalLabelPosition=bottom;aspect=fixed;html=1;shape=mxgraph.salesforce.web;fillColorStyles=fillColor2,fillColor3,fillColor4;fillColor2=#032d60;fillColor3=#0d9dda;fillColor4=#ffffff;fillColor=none;strokeColor=none;" vertex="1" parent="1">
          <mxGeometry x="297" y="542.7" width="60" height="47.400000000000006" as="geometry" />
        </mxCell>
        <mxCell id="yHV1ldtDMZXM0xFjSTpt-11" value="Actor" style="shape=umlActor;verticalLabelPosition=bottom;verticalAlign=top;html=1;outlineConnect=0;" vertex="1" parent="1">
          <mxGeometry x="602" y="536.4" width="30" height="60" as="geometry" />
        </mxCell>
        <mxCell id="yHV1ldtDMZXM0xFjSTpt-12" value="sistema recebe arquivo" style="edgeStyle=orthogonalEdgeStyle;rounded=0;orthogonalLoop=1;jettySize=auto;html=1;entryX=1.017;entryY=0.5;entryDx=0;entryDy=0;entryPerimeter=0;" edge="1" parent="1" source="yHV1ldtDMZXM0xFjSTpt-11" target="yHV1ldtDMZXM0xFjSTpt-3">
          <mxGeometry relative="1" as="geometry" />
        </mxCell>
        <mxCell id="yHV1ldtDMZXM0xFjSTpt-26" style="edgeStyle=orthogonalEdgeStyle;rounded=0;orthogonalLoop=1;jettySize=auto;html=1;" edge="1" parent="1" source="yHV1ldtDMZXM0xFjSTpt-22" target="yHV1ldtDMZXM0xFjSTpt-25">
          <mxGeometry relative="1" as="geometry" />
        </mxCell>
        <mxCell id="yHV1ldtDMZXM0xFjSTpt-22" value="EC2" style="outlineConnect=0;dashed=0;verticalLabelPosition=bottom;verticalAlign=top;align=center;html=1;shape=mxgraph.aws3.ec2;fillColor=#F58534;gradientColor=none;" vertex="1" parent="1">
          <mxGeometry x="672" y="286" width="76.5" height="93" as="geometry" />
        </mxCell>
        <mxCell id="yHV1ldtDMZXM0xFjSTpt-23" style="edgeStyle=orthogonalEdgeStyle;rounded=0;orthogonalLoop=1;jettySize=auto;html=1;entryX=1;entryY=0.5;entryDx=0;entryDy=0;entryPerimeter=0;" edge="1" parent="1" source="yHV1ldtDMZXM0xFjSTpt-22" target="yHV1ldtDMZXM0xFjSTpt-2">
          <mxGeometry relative="1" as="geometry" />
        </mxCell>
        <mxCell id="yHV1ldtDMZXM0xFjSTpt-25" value="Drive E - EBS" style="outlineConnect=0;dashed=0;verticalLabelPosition=bottom;verticalAlign=top;align=center;html=1;shape=mxgraph.aws3.volume;fillColor=#E05243;gradientColor=none;" vertex="1" parent="1">
          <mxGeometry x="880" y="295" width="52.5" height="75" as="geometry" />
        </mxCell>
        <mxCell id="yHV1ldtDMZXM0xFjSTpt-27" value="DB RDS" style="outlineConnect=0;dashed=0;verticalLabelPosition=bottom;verticalAlign=top;align=center;html=1;shape=mxgraph.aws3.rds;fillColor=#2E73B8;gradientColor=none;" vertex="1" parent="1">
          <mxGeometry x="781" y="111" width="72" height="81" as="geometry" />
        </mxCell>
        <mxCell id="yHV1ldtDMZXM0xFjSTpt-32" style="edgeStyle=orthogonalEdgeStyle;rounded=0;orthogonalLoop=1;jettySize=auto;html=1;entryX=0;entryY=0.5;entryDx=0;entryDy=0;entryPerimeter=0;" edge="1" parent="1" source="yHV1ldtDMZXM0xFjSTpt-22" target="yHV1ldtDMZXM0xFjSTpt-27">
          <mxGeometry relative="1" as="geometry">
            <Array as="points">
              <mxPoint x="710" y="152" />
            </Array>
          </mxGeometry>
        </mxCell>
        <mxCell id="yHV1ldtDMZXM0xFjSTpt-37" value="Text" style="text;html=1;align=center;verticalAlign=middle;resizable=0;points=[];autosize=1;strokeColor=none;fillColor=none;" vertex="1" parent="1">
          <mxGeometry x="318" y="-84" width="40" height="26" as="geometry" />
        </mxCell>
      </root>
    </mxGraphModel>
  </diagram>
</mxfile>
